<mxfile host="Electron" modified="2025-09-24T12:00:00.000Z" agent="Mozilla/5.0" version="22.1.16" etag="abc123" type="device">
  <diagram name="NutriVeda Flow" id="flow">
    <mxGraphModel dx="1422" dy="794" grid="1" gridSize="10" guides="1" tooltips="1" connect="1" arrows="1" fold="1" page="1" pageScale="1" pageWidth="1169" pageHeight="827" math="0" shadow="0">
      <root>
        <mxCell id="0"/>
        <mxCell id="1" parent="0"/>
        
        <!-- Start -->
        <mxCell id="2" value="NutriVeda App Start" style="ellipse;whiteSpace=wrap;html=1;fillColor=#d5e8d4;strokeColor=#82b366;" vertex="1" parent="1">
          <mxGeometry x="520" y="30" width="120" height="60" as="geometry"/>
        </mxCell>
        
        <!-- Login -->
        <mxCell id="3" value="Login Screen&#xa;(Select User Type)" style="rounded=1;whiteSpace=wrap;html=1;fillColor=#fff2cc;strokeColor=#d6b656;" vertex="1" parent="1">
          <mxGeometry x="520" y="130" width="120" height="60" as="geometry"/>
        </mxCell>
        
        <!-- Decision -->
        <mxCell id="4" value="Doctor or&#xa;Patient?" style="rhombus;whiteSpace=wrap;html=1;fillColor=#f8cecc;strokeColor=#b85450;" vertex="1" parent="1">
          <mxGeometry x="540" y="230" width="80" height="80" as="geometry"/>
        </mxCell>
        
        <!-- Doctor Dashboard -->
        <mxCell id="5" value="Doctor Dashboard" style="rounded=1;whiteSpace=wrap;html=1;fillColor=#dae8fc;strokeColor=#6c8ebf;" vertex="1" parent="1">
          <mxGeometry x="300" y="350" width="120" height="60" as="geometry"/>
        </mxCell>
        
        <!-- Select Doctor -->
        <mxCell id="6" value="Select Doctor" style="rounded=1;whiteSpace=wrap;html=1;fillColor=#e1d5e7;strokeColor=#9673a6;" vertex="1" parent="1">
          <mxGeometry x="740" y="350" width="120" height="60" as="geometry"/>
        </mxCell>
        
        <!-- Patient Dashboard -->
        <mxCell id="7" value="Patient Dashboard" style="rounded=1;whiteSpace=wrap;html=1;fillColor=#e1d5e7;strokeColor=#9673a6;" vertex="1" parent="1">
          <mxGeometry x="740" y="450" width="120" height="60" as="geometry"/>
        </mxCell>
        
        <!-- Assessment Check -->
        <mxCell id="8" value="Assessment&#xa;Complete?" style="rhombus;whiteSpace=wrap;html=1;fillColor=#f8cecc;strokeColor=#b85450;" vertex="1" parent="1">
          <mxGeometry x="540" y="450" width="80" height="80" as="geometry"/>
        </mxCell>
        
        <!-- Prakruti Test -->
        <mxCell id="9" value="Prakruti Test" style="rounded=1;whiteSpace=wrap;html=1;fillColor=#ffe6cc;strokeColor=#d79b00;" vertex="1" parent="1">
          <mxGeometry x="400" y="570" width="120" height="60" as="geometry"/>
        </mxCell>
        
        <!-- Diet Plan -->
        <mxCell id="10" value="Diet Plan Screen" style="rounded=1;whiteSpace=wrap;html=1;fillColor=#d5e8d4;strokeColor=#82b366;" vertex="1" parent="1">
          <mxGeometry x="680" y="570" width="120" height="60" as="geometry"/>
        </mxCell>
        
        <!-- Arrows -->
        <mxCell id="11" value="" style="endArrow=classic;html=1;entryX=0.5;entryY=0;" edge="1" parent="1" source="2" target="3">
          <mxGeometry width="50" height="50" relative="1" as="geometry">
            <mxPoint x="580" y="100" as="sourcePoint"/>
            <mxPoint x="630" y="50" as="targetPoint"/>
          </mxGeometry>
        </mxCell>
        
        <mxCell id="12" value="" style="endArrow=classic;html=1;entryX=0.5;entryY=0;" edge="1" parent="1" source="3" target="4">
          <mxGeometry width="50" height="50" relative="1" as="geometry">
            <mxPoint x="580" y="200" as="sourcePoint"/>
            <mxPoint x="630" y="150" as="targetPoint"/>
          </mxGeometry>
        </mxCell>
        
        <mxCell id="13" value="Doctor" style="endArrow=classic;html=1;entryX=0.5;entryY=0;" edge="1" parent="1" source="4" target="5">
          <mxGeometry width="50" height="50" relative="1" as="geometry">
            <mxPoint x="520" y="300" as="sourcePoint"/>
            <mxPoint x="570" y="250" as="targetPoint"/>
          </mxGeometry>
        </mxCell>
        
        <mxCell id="14" value="Patient" style="endArrow=classic;html=1;entryX=0.5;entryY=0;" edge="1" parent="1" source="4" target="6">
          <mxGeometry width="50" height="50" relative="1" as="geometry">
            <mxPoint x="620" y="300" as="sourcePoint"/>
            <mxPoint x="670" y="250" as="targetPoint"/>
          </mxGeometry>
        </mxCell>
        
        <mxCell id="15" value="" style="endArrow=classic;html=1;entryX=0.5;entryY=0;" edge="1" parent="1" source="6" target="7">
          <mxGeometry width="50" height="50" relative="1" as="geometry">
            <mxPoint x="800" y="420" as="sourcePoint"/>
            <mxPoint x="850" y="370" as="targetPoint"/>
          </mxGeometry>
        </mxCell>
        
        <mxCell id="16" value="" style="endArrow=classic;html=1;entryX=1;entryY=0.5;" edge="1" parent="1" source="7" target="8">
          <mxGeometry width="50" height="50" relative="1" as="geometry">
            <mxPoint x="740" y="480" as="sourcePoint"/>
            <mxPoint x="630" y="490" as="targetPoint"/>
          </mxGeometry>
        </mxCell>
        
        <mxCell id="17" value="No" style="endArrow=classic;html=1;entryX=0.5;entryY=0;" edge="1" parent="1" source="8" target="9">
          <mxGeometry width="50" height="50" relative="1" as="geometry">
            <mxPoint x="540" y="530" as="sourcePoint"/>
            <mxPoint x="460" y="570" as="targetPoint"/>
          </mxGeometry>
        </mxCell>
        
        <mxCell id="18" value="Yes" style="endArrow=classic;html=1;entryX=0.5;entryY=0;" edge="1" parent="1" source="8" target="10">
          <mxGeometry width="50" height="50" relative="1" as="geometry">
            <mxPoint x="620" y="530" as="sourcePoint"/>
            <mxPoint x="740" y="570" as="targetPoint"/>
          </mxGeometry>
        </mxCell>
        
      </root>
    </mxGraphModel>
  </diagram>
</mxfile>
